{
  "accessors": [
    {
      "bufferView": 2,
      "componentType": 5126,
      "count": 98,
      "max": [
        149.86000061035156,
        99.751251220703125,
        99.751251220703125
      ],
      "min": [
        149.8599853515625,
        2.442859411239624,
        2.442859411239624
      ],
      "type": "VEC3"
    },
    {
      "bufferView": 2,
      "byteOffset": 1176,
      "componentType": 5126,
      "count": 98,
      "max": [
        1,
        3.1605452477379004e-06,
        3.1361705055132916e-07
      ],
      "min": [
        1,
        -1.9753406377276406e-06,
        -3.1093424013306503e-07
      ],
      "type": "VEC3"
    },
    {
      "bufferView": 1,
      "componentType": 5126,
      "count": 98,
      "max": [
        1.0000001192092896,
        1
      ],
      "min": [
        1.1920928955078125e-07,
        5.9604644775390625e-08
      ],
      "type": "VEC2"
    },
    {
      "bufferView": 0,
      "componentType": 5125,
      "count": 144,
      "max": [
        97
      ],
      "min": [
        0
      ],
      "type": "SCALAR"
    },
    {
      "bufferView": 2,
      "byteOffset": 2352,
      "componentType": 5126,
      "count": 7637,
      "max": [
        152.39175415039062,
        122.96643829345703,
        101.13300323486328
      ],
      "min": [
        -0.019384050741791725,
        1.2406462430953979,
        1.2119100093841553
      ],
      "type": "VEC3"
    },
    {
      "bufferView": 2,
      "byteOffset": 93996,
      "componentType": 5126,
      "count": 7637,
      "max": [
        1,
        1,
        1
      ],
      "min": [
        -1,
        -1,
        -1
      ],
      "type": "VEC3"
    },
    {
      "bufferView": 1,
      "byteOffset": 784,
      "componentType": 5126,
      "count": 7637,
      "max": [
        1,
        0.956795334815979
      ],
      "min": [
        3.0910637686530724e-17,
        2.4334263957880985e-17
      ],
      "type": "VEC2"
    },
    {
      "bufferView": 0,
      "byteOffset": 576,
      "componentType": 5125,
      "count": 39672,
      "max": [
        7636
      ],
      "min": [
        0
      ],
      "type": "SCALAR"
    },
    {
      "bufferView": 2,
      "byteOffset": 185640,
      "componentType": 5126,
      "count": 201,
      "max": [
        32.584236145019531,
        1.52587890625e-05,
        32.584239959716797
      ],
      "min": [
        -32.584247589111328,
        -32.584213256835938,
        -32.584251403808594
      ],
      "type": "VEC3"
    },
    {
      "bufferView": 2,
      "byteOffset": 188052,
      "componentType": 5126,
      "count": 201,
      "max": [
        0.99691742658615112,
        -0.078458443284034729,
        0.9969174861907959
      ],
      "min": [
        -0.99691736698150635,
        -1,
        -0.99691742658615112
      ],
      "type": "VEC3"
    },
    {
      "bufferView": 1,
      "byteOffset": 61880,
      "componentType": 5126,
      "count": 201,
      "max": [
        1.0000001192092896,
        1
      ],
      "min": [
        0,
        -5.9604644775390625e-08
      ],
      "type": "VEC2"
    },
    {
      "bufferView": 0,
      "byteOffset": 159264,
      "componentType": 5125,
      "count": 1140,
      "max": [
        200
      ],
      "min": [
        0
      ],
      "type": "SCALAR"
    }
  ],
  "asset": {
    "extras": {
      "author": "IUPUI University Library (https://sketchfab.com/iupuiul)",
      "license": "CC-BY-4.0 (http://creativecommons.org/licenses/by/4.0/)",
      "source": "https://sketchfab.com/3d-models/flash-light-410f25b2f1774b63a4fd596b4f19dee2",
      "title": "Flash Light"
    },
    "generator": "Sketchfab-7.93.0",
    "version": "2.0"
  },
  "bufferViews": [
    {
      "buffer": 0,
      "byteLength": 163824,
      "byteOffset": 0,
      "name": "floatBufferViews",
      "target": 34963
    },
    {
      "buffer": 0,
      "byteLength": 63488,
      "byteOffset": 163824,
      "byteStride": 8,
      "name": "floatBufferViews",
      "target": 34962
    },
    {
      "buffer": 0,
      "byteLength": 190464,
      "byteOffset": 227312,
      "byteStride": 12,
      "name": "floatBufferViews",
      "target": 34962
    }
  ],
  "buffers": [
    {
      "byteLength": 417776,
      "uri": "scene.bin"
    }
  ],
  "images": [
    {
      "uri": "textures/M_FlashLightOuterLense_baseColor.png"
    },
    {
      "uri": "textures/M_FlashLightBody_baseColor.png"
    }
  ],
  "materials": [
    {
      "alphaMode": "BLEND",
      "doubleSided": true,
      "name": "M_FlashLightOuterLense",
      "pbrMetallicRoughness": {
        "baseColorFactor": [
          1,
          1,
          1,
          0.46899999999999997
        ],
        "baseColorTexture": {
          "index": 0,
          "texCoord": 0
        },
        "metallicFactor": 0,
        "roughnessFactor": 0
      }
    },
    {
      "doubleSided": true,
      "name": "M_FlashLightBody",
      "pbrMetallicRoughness": {
        "baseColorFactor": [
          0.66850895737156724,
          0.66850895737156724,
          0.66850895737156724,
          1
        ],
        "baseColorTexture": {
          "index": 1,
          "texCoord": 0
        },
        "metallicFactor": 0.038205927068536934,
        "roughnessFactor": 0.28063016949277936
      }
    },
    {
      "doubleSided": true,
      "name": "M_FlashLightInnerLense",
      "pbrMetallicRoughness": {
        "baseColorFactor": [
          1,
          1,
          1,
          1
        ],
        "baseColorTexture": {
          "index": 0,
          "texCoord": 0
        },
        "metallicFactor": 0,
        "roughnessFactor": 0
      }
    }
  ],
  "meshes": [
    {
      "name": "FlashLight_OuterLense_M_FlashLightOuterLense_0",
      "primitives": [
        {
          "attributes": {
            "NORMAL": 1,
            "POSITION": 0,
            "TEXCOORD_0": 2
          },
          "indices": 3,
          "material": 0,
          "mode": 4
        }
      ]
    },
    {
      "name": "FlashLight_Body_M_FlashLightBody_0",
      "primitives": [
        {
          "attributes": {
            "NORMAL": 5,
            "POSITION": 4,
            "TEXCOORD_0": 6
          },
          "indices": 7,
          "material": 1,
          "mode": 4
        }
      ]
    },
    {
      "name": "FlashLight_InnerLense_M_FlashLightInnerLense_0",
      "primitives": [
        {
          "attributes": {
            "NORMAL": 9,
            "POSITION": 8,
            "TEXCOORD_0": 10
          },
          "indices": 11,
          "material": 2,
          "mode": 4
        }
      ]
    }
  ],
  "nodes": [
    {
      "children": [
        1
      ],
      "name": "RootNode (gltf orientation matrix)",
      "rotation": [
        -0.70710678118654746,
        -0,
        -0,
        0.70710678118654757
      ]
    },
    {
      "children": [
        2
      ],
      "name": "RootNode (model correction matrix)"
    },
    {
      "children": [
        3
      ],
      "matrix": [
        1,
        0,
        0,
        0,
        0,
        0,
        1,
        0,
        0,
        -1,
        0,
        0,
        0,
        0,
        0,
        1
      ],
      "name": "ccfa7cafc5a84cfdb30bb8dc8b514d07.fbx"
    },
    {
      "children": [
        4,
        6,
        8
      ],
      "name": "RootNode"
    },
    {
      "children": [
        5
      ],
      "name": "FlashLight_OuterLense"
    },
    {
      "mesh": 0,
      "name": "FlashLight_OuterLense_M_FlashLightOuterLense_0"
    },
    {
      "children": [
        7
      ],
      "name": "FlashLight_Body"
    },
    {
      "mesh": 1,
      "name": "FlashLight_Body_M_FlashLightBody_0"
    },
    {
      "children": [
        9
      ],
      "matrix": [
        -6.5142117011864195e-16,
        -1.4668700695037842,
        0,
        0,
        0.60674470663070679,
        -2.6944877734833862e-16,
        0,
        0,
        0,
        0,
        1.4668700695037842,
        0,
        149.03547668457031,
        51.097068786621094,
        51.097068786621094,
        1
      ],
      "name": "FlashLight_InnerLense"
    },
    {
      "mesh": 2,
      "name": "FlashLight_InnerLense_M_FlashLightInnerLense_0"
    }
  ],
  "samplers": [
    {
      "magFilter": 9729,
      "minFilter": 9987,
      "wrapS": 10497,
      "wrapT": 10497
    }
  ],
  "scene": 0,
  "scenes": [
    {
      "name": "OSG_Scene",
      "nodes": [
        0
      ]
    }
  ],
  "textures": [
    {
      "sampler": 0,
      "source": 0
    },
    {
      "sampler": 0,
      "source": 1
    }
  ]
}

